<svg style="display: none;">
  <defs>
    <!-- Feather Icons -->
    <symbol id="icon-edit" viewBox="0 0 24 24" fill="none" stroke="currentColor" stroke-width="2">
      <path d="M11 4H4a2 2 0 0 0-2 2v14a2 2 0 0 0 2 2h14a2 2 0 0 0 2-2v-7"></path>
      <path d="M18.5 2.5a2.121 2.121 0 0 1 3 3L12 15l-4 1 1-4 9.5-9.5z"></path>
    </symbol>
    
    <symbol id="icon-file-text" viewBox="0 0 24 24" fill="none" stroke="currentColor" stroke-width="2">
      <path d="M14 2H6a2 2 0 0 0-2 2v16a2 2 0 0 0 2 2h12a2 2 0 0 0 2-2V8z"></path>
      <polyline points="14,2 14,8 20,8"></polyline>
      <line x1="16" y1="13" x2="8" y2="13"></line>
      <line x1="16" y1="17" x2="8" y2="17"></line>
      <polyline points="10,9 9,9 8,9"></polyline>
    </symbol>
    
    <symbol id="icon-bar-chart" viewBox="0 0 24 24" fill="none" stroke="currentColor" stroke-width="2">
      <line x1="12" y1="20" x2="12" y2="10"></line>
      <line x1="18" y1="20" x2="18" y2="4"></line>
      <line x1="6" y1="20" x2="6" y2="16"></line>
    </symbol>
    
    <symbol id="icon-clock" viewBox="0 0 24 24" fill="none" stroke="currentColor" stroke-width="2">
      <circle cx="12" cy="12" r="10"></circle>
      <polyline points="12,6 12,12 16,14"></polyline>
    </symbol>
    
    <symbol id="icon-eye" viewBox="0 0 24 24" fill="none" stroke="currentColor" stroke-width="2">
      <path d="M1 12s4-8 11-8 11 8 11 8-4 8-11 8-11-8-11-8z"></path>
      <circle cx="12" cy="12" r="3"></circle>
    </symbol>
    
    <symbol id="icon-sun" viewBox="0 0 24 24" fill="none" stroke="currentColor" stroke-width="2">
      <circle cx="12" cy="12" r="5"></circle>
      <line x1="12" y1="1" x2="12" y2="3"></line>
      <line x1="12" y1="21" x2="12" y2="23"></line>
      <line x1="4.22" y1="4.22" x2="5.64" y2="5.64"></line>
      <line x1="18.36" y1="18.36" x2="19.78" y2="19.78"></line>
      <line x1="1" y1="12" x2="3" y2="12"></line>
      <line x1="21" y1="12" x2="23" y2="12"></line>
      <line x1="4.22" y1="19.78" x2="5.64" y2="18.36"></line>
      <line x1="18.36" y1="5.64" x2="19.78" y2="4.22"></line>
    </symbol>
    
    <symbol id="icon-moon" viewBox="0 0 24 24" fill="none" stroke="currentColor" stroke-width="2">
      <path d="M21 12.79A9 9 0 1 1 11.21 3 7 7 0 0 0 21 12.79z"></path>
    </symbol>
    
    <symbol id="icon-settings" viewBox="0 0 24 24" fill="none" stroke="currentColor" stroke-width="2">
      <circle cx="12" cy="12" r="3"></circle>
      <path d="M19.4 15a1.65 1.65 0 0 0 .33 1.82l.06.06a2 2 0 0 1 0 2.83 2 2 0 0 1-2.83 0l-.06-.06a1.65 1.65 0 0 0-1.82-.33 1.65 1.65 0 0 0-1 1.51V21a2 2 0 0 1-2 2 2 2 0 0 1-2-2v-.09A1.65 1.65 0 0 0 9 19.4a1.65 1.65 0 0 0-1.82.33l-.06.06a2 2 0 0 1-2.83 0 2 2 0 0 1 0-2.83l.06-.06a1.65 1.65 0 0 0 .33-1.82 1.65 1.65 0 0 0-1.51-1H3a2 2 0 0 1-2-2 2 2 0 0 1 2-2h.09A1.65 1.65 0 0 0 4.6 9a1.65 1.65 0 0 0-.33-1.82l-.06-.06a2 2 0 0 1 0-2.83 2 2 0 0 1 2.83 0l.06.06a1.65 1.65 0 0 0 1.82.33H9a1.65 1.65 0 0 0 1 1.51V3a2 2 0 0 1 2-2 2 2 0 0 1 2 2v.09a1.65 1.65 0 0 0 1 1.51 1.65 1.65 0 0 0 1.82-.33l.06-.06a2 2 0 0 1 2.83 0 2 2 0 0 1 0 2.83l-.06.06a1.65 1.65 0 0 0-.33 1.82V9a1.65 1.65 0 0 0 1.51 1H21a2 2 0 0 1 2 2 2 2 0 0 1-2 2h-.09a1.65 1.65 0 0 0-1.51 1z"></path>
    </symbol>
    
    <symbol id="icon-save" viewBox="0 0 24 24" fill="none" stroke="currentColor" stroke-width="2">
      <path d="M19 21H5a2 2 0 0 1-2-2V5a2 2 0 0 1 2-2h11l5 5v11a2 2 0 0 1-2 2z"></path>
      <polyline points="17,21 17,13 7,13 7,21"></polyline>
      <polyline points="7,3 7,8 15,8"></polyline>
    </symbol>
    
    <symbol id="icon-copy" viewBox="0 0 24 24" fill="none" stroke="currentColor" stroke-width="2">
      <rect x="9" y="9" width="13" height="13" rx="2" ry="2"></rect>
      <path d="M5 15H4a2 2 0 0 1-2-2V4a2 2 0 0 1 2-2h9a2 2 0 0 1 2 2v1"></path>
    </symbol>
    
    <symbol id="icon-download" viewBox="0 0 24 24" fill="none" stroke="currentColor" stroke-width="2">
      <path d="M21 15v4a2 2 0 0 1-2 2H5a2 2 0 0 1-2-2v-4"></path>
      <polyline points="7,10 12,15 17,10"></polyline>
      <line x1="12" y1="15" x2="12" y2="3"></line>
    </symbol>
    
    <symbol id="icon-printer" viewBox="0 0 24 24" fill="none" stroke="currentColor" stroke-width="2">
      <polyline points="6,9 6,2 18,2 18,9"></polyline>
      <path d="M6 18H4a2 2 0 0 1-2-2v-5a2 2 0 0 1 2-2h16a2 2 0 0 1 2 2v5a2 2 0 0 1-2 2h-2"></path>
      <rect x="6" y="14" width="12" height="8"></rect>
    </symbol>
    
    <symbol id="icon-trash" viewBox="0 0 24 24" fill="none" stroke="currentColor" stroke-width="2">
      <polyline points="3,6 5,6 21,6"></polyline>
      <path d="M19 6v14a2 2 0 0 1-2 2H7a2 2 0 0 1-2-2V6m3 0V4a2 2 0 0 1 2-2h4a2 2 0 0 1 2 2v2"></path>
      <line x1="10" y1="11" x2="10" y2="17"></line>
      <line x1="14" y1="11" x2="14" y2="17"></line>
    </symbol>
    
    <symbol id="icon-x" viewBox="0 0 24 24" fill="none" stroke="currentColor" stroke-width="2">
      <line x1="18" y1="6" x2="6" y2="18"></line>
      <line x1="6" y1="6" x2="18" y2="18"></line>
    </symbol>
    
    <symbol id="icon-chevron-up" viewBox="0 0 24 24" fill="none" stroke="currentColor" stroke-width="2">
      <polyline points="18,15 12,9 6,15"></polyline>
    </symbol>
    
    <symbol id="icon-activity" viewBox="0 0 24 24" fill="none" stroke="currentColor" stroke-width="2">
      <polyline points="22,12 18,12 15,21 9,3 6,12 2,12"></polyline>
    </symbol>
    
    <symbol id="icon-target" viewBox="0 0 24 24" fill="none" stroke="currentColor" stroke-width="2">
      <circle cx="12" cy="12" r="10"></circle>
      <circle cx="12" cy="12" r="6"></circle>
      <circle cx="12" cy="12" r="2"></circle>
    </symbol>
  </defs>
</svg>
